<svg width="785" height="854" xmlns="http://www.w3.org/2000/svg" class="icon">
 <defs>
  <style type="text/css"/>
 </defs>
 <g>
  <title>background</title>
  <rect fill="none" id="canvas_background" height="856" width="787" y="-1" x="-1"/>
 </g>
 <g>
  <title>Layer 1</title>
  <path id="svg_1"  d="m733.866663,0.000002l-682.66666,0c-28.16,0 -51.2,23.04 -51.2,51.2l0,750.93334c0,28.16 23.04,51.2 51.2,51.2l682.66666,0c28.16,0 51.2,-23.04 51.2,-51.2l0,-750.93334c0,-28.16 -23.04,-51.2 -51.2,-51.2zm-397.22666,512.42667l-132.69334,132.69333c-13.22666,13.22667 -34.98666,13.22667 -48.21333,0l-60.16,-60.16c-13.22667,-13.22666 -13.22667,-34.98666 0,-48.21333c13.22667,-13.22667 34.98667,-13.22667 48.21333,0l36.26667,36.26667l108.8,-108.8c13.22667,-13.22667 34.98667,-13.22667 48.21333,0c12.8,13.22666 12.8,34.98666 -0.42666,48.21333zm0,-256l-132.69334,132.69333c-13.22666,13.22667 -34.98666,13.22667 -48.21333,0l-60.58667,-60.16c-13.22666,-13.22666 -13.22666,-34.98666 0,-48.21333c13.22667,-13.22667 34.98667,-13.22667 48.21334,0l36.26666,36.26667l108.8,-108.8c13.22667,-13.22667 34.98667,-13.22667 48.21334,0c13.22666,13.22666 13.22666,34.98666 0,48.21333zm328.96,356.26667l-204.8,0c-18.77334,0 -34.13334,-15.36 -34.13334,-34.13334s15.36,-34.13333 34.13334,-34.13333l204.8,0c18.77333,0 34.13333,15.36 34.13333,34.13333s-15.36,34.13334 -34.13333,34.13334zm0,-256l-204.8,0c-18.77334,0 -34.13334,-15.36 -34.13334,-34.13334s15.36,-34.13333 34.13334,-34.13333l204.8,0c18.77333,0 34.13333,15.36 34.13333,34.13333s-15.36,34.13334 -34.13333,34.13334z"/>
 </g>
</svg>
