<svg width="930" height="930" xmlns="http://www.w3.org/2000/svg" class="icon">
 <defs>
  <style type="text/css"/>
 </defs>
 <g>
  <title>background</title>
  <rect fill="none" id="canvas_background" height="932" width="932" y="-1" x="-1"/>
 </g>
 <g>
  <title>Layer 1</title>
  <path id="svg_1" d="m399.777535,44.881285l0,363.05454l-251.34545,0c-34.90909,0 -58.18182,-39.56363 -37.23637,-69.81818l207.12728,-318.83636c23.27272,-34.90909 81.45454,-18.61819 81.45454,25.6zm486.4,365.38181l-365.38181,0l0,-253.67272c0,-34.90909 39.56363,-58.18182 69.81818,-37.23637l318.83636,207.12728c37.23636,25.6 20.94546,83.78181 -23.27273,83.78181zm-367.70909,477.09091l0,-365.38181l253.67273,0c34.90909,0 58.18182,39.56363 37.23636,69.81818l-207.12727,318.83636c-25.6,37.23636 -83.78182,20.94546 -83.78182,-23.27273zm-474.76363,-365.38181l363.05454,0l0,253.67272c0,34.90909 -39.56363,58.18182 -69.81818,37.23637l-316.50909,-207.12728c-37.23637,-25.6 -20.94546,-83.78181 23.27273,-83.78182l0,0.00001z"/>
 </g>
</svg>