<svg width="850" height="816" xmlns="http://www.w3.org/2000/svg" class="icon">
 <defs>
  <style type="text/css"/>
 </defs>
 <g>
  <title>background</title>
  <rect fill="none" id="canvas_background" height="818" width="852" y="-1" x="-1"/>
 </g>
 <g>
  <title>Layer 1</title>
  <path id="svg_1"  d="m373.05333,149.58667l-125.86666,-148.48l-142.93334,0l125.86667,148.05333l142.93333,0l0,0.42667zm370.77334,-0.42667l-125.86667,-148.05333l-142.93333,0l126.29333,148.05333l142.50667,0zm-185.17334,0l-125.86666,-148.05333l-142.93334,0l125.86667,148.05333l142.93333,0zm238.93334,-148.48l-136.96,0l126.29333,148.05333l66.56,0l0,-91.73333c-0.42667,-31.57333 -24.32,-55.89333 -55.89333,-55.89333l0,-0.42667zm-736,0l-5.54667,0c-31.57333,0 -55.46667,23.89333 -55.46667,55.46667l0,92.58666l187.30667,0l-126.29333,-147.62666l0,-0.42667zm-61.01334,759.89333c0,31.57334 23.89334,55.46667 55.46667,55.46667l741.54667,0c31.57333,0 55.46666,-23.89333 55.46666,-55.46667l0,-573.86666l-852.48,0l0,574.29333l0,-0.42667zm357.54667,-1167.36c0,-31.57333 26.02667,-46.50666 55.46667,-46.50666c9.38666,0 20.48,1.70666 29.86666,7.25333l211.2,122.45333c25.6,13.65334 35.41334,45.22667 21.76,70.82667c-4.69333,9.38667 -12.37333,16.64 -21.76,21.76l-211.2,122.45333c-9.38666,5.54667 -18.34666,7.25334 -29.86666,7.25334c-29.86667,0 -55.46667,-14.93334 -55.46667,-46.50667l0,501.33333l0,-760.32z"/>
 </g>
</svg>