<svg width="1107" height="1024" xmlns="http://www.w3.org/2000/svg" class="icon">
 <defs>
  <style type="text/css"/>
 </defs>
 <g>
  <title>background</title>
  <rect fill="none" id="canvas_background" height="402" width="582" y="-1" x="-1"/>
 </g>
 <g>
  <title>Layer 1</title>
  <path id="svg_1" d="m229.74836,1023.90691l0,-681.14618c0,-27.15928 -20.87563,-48.05819 -45.94036,-48.05819l-137.84436,0c-25.04146,0 -45.94037,22.97019 -45.94037,48.05819l0,681.14618l229.72509,0zm292.37528,0l0,-973.66109c0,-27.18255 -20.87564,-50.15273 -45.94037,-50.15273l-137.84436,0c-25.06473,0 -45.94036,22.97018 -45.94036,50.15273l0,973.66109l229.72509,0zm292.37527,0l0,-430.42909c0,-27.15928 -20.87564,-50.12946 -45.94037,-50.12946l-137.82109,0c-25.06472,0 -45.96363,22.97019 -45.96363,50.12946l0,430.42909l229.72509,0zm292.37527,0l0,-681.14618c0,-27.15928 -20.87563,-48.05819 -45.94036,-48.05819l-137.84436,0c-25.04146,0 -45.94037,22.97019 -45.94037,48.05819l0,681.14618l229.72509,0z"/>
 </g>
</svg>